<svg xmlns="http://www.w3.org/2000/svg" xmlns:xlink="http://www.w3.org/1999/xlink" viewBox="0 0 468 468"><path fill="#ebd2f7" d="M319.712 413.011V394.78l-11.977-1.735a40.123 40.123 0 0 0-3.764-9.043l7.238-9.663-12.945-12.891-9.703 7.208a40.482 40.482 0 0 0-9.08-3.748l-1.742-11.927h-18.307l-1.742 11.927a40.463 40.463 0 0 0-9.08 3.748l-9.703-7.208-12.945 12.891 7.238 9.663a40.104 40.104 0 0 0-3.764 9.043l-11.977 1.735v18.231l11.977 1.735a40.123 40.123 0 0 0 3.764 9.043l-7.238 9.663 12.945 12.891 9.703-7.208a40.482 40.482 0 0 0 9.08 3.748l1.742 11.927h18.307l1.742-11.927a40.463 40.463 0 0 0 9.08-3.748l9.703 7.208 12.945-12.891-7.238-9.663a40.104 40.104 0 0 0 3.764-9.043l11.977-1.735z" className="colore2d2f7 svgShape"/><ellipse cx="268.586" cy="403.895" fill="#fff" className="colorffffff svgShape" rx="30.377" ry="30.306"/><path fill="#8526fe" d="M14 392.764V83.13c0-5.624 4.559-10.183 10.183-10.183h419.634c5.624 0 10.183 4.559 10.183 10.183v309.634c0 5.624-4.559 10.183-10.183 10.183H24.183c-5.624 0-10.183-4.559-10.183-10.183z" className="color131c46 svgShape"/><path fill="#ad59d4" d="M209.637 38.648c0-14.06-11.398-25.457-25.457-25.457-14.06 0-25.457 11.398-25.457 25.457s25.457 45.298 25.457 45.298 25.457-31.239 25.457-45.298z" className="color865acc svgShape"/><circle cx="184.18" cy="39.1" r="14.172" fill="#fff" className="colorffffff svgShape"/><path fill="#e8f9f7" d="M32 90.947h404v294H32z" className="colorf0e8f9 svgShape"/><path fill="#fff" d="M259.306 177.036c29.992 0 54.306 24.407 54.306 54.515.016 29.972-24.195 54.506-54.306 54.516-30.112-.01-54.322-24.543-54.306-54.516 0-30.108 24.314-54.515 54.306-54.515z" className="colorffffff svgShape"/><path fill="#c555f9" d="M259.306 286.067c-15.845 0-30.103-6.814-40.031-17.68v-5.872c0-16.423 13.262-29.736 29.621-29.736h20.819c16.359 0 29.621 13.313 29.621 29.736v5.872c-9.927 10.866-24.185 17.68-40.03 17.68z" className="colorf955af svgShape"/><path fill="#b119f7" d="M236.139 273.091a13.904 13.904 0 0 1-4.864-10.576c0-16.423 13.262-29.736 29.622-29.736h-12c-16.359 0-29.622 13.313-29.622 29.736v5.873c9.927 10.866 24.186 17.68 40.031 17.68a54.55 54.55 0 0 0 6-.333c-11.062-1.222-21.124-5.777-29.167-12.644z" className="colorf7199e svgShape"/><path fill="#d8a353" d="M259.511 244.915h-.409c-6.177 0-11.184-5.007-11.184-11.184v-15.544h22.778v15.544c-.001 6.177-5.009 11.184-11.185 11.184z" className="colorf9a395 svgShape"/><path fill="#ffe1b3" d="M259.692 228.692h-.772c-11.656 0-21.106-9.449-21.106-21.106v-31.861h42.983v31.861c.001 11.657-9.449 21.106-21.105 21.106z" className="colorffc0b3 svgShape"/><path fill="#333" d="M240.573 166.062a2.005 2.005 0 0 0-3.097-.585c-15.522 13.528.921 35.339.921 35.339 0-.377-1.534-16.029 4.376-20.002 0 0 5.63 6.928 13.739 5.167 0 0-1.513-3.405-1.014-5.167 0 0 8.109 7.045 23.33 2.139 0 0 2.731 11.844 2.131 19.498 0 0 15.391-24.614.014-38.767-5.315-4.892-14.037-7.975-21.224-7.584-6.107.333-14.531 3.27-19.176 9.962z" className="color333333 svgShape"/><path fill="#212121" d="M245.476 167.477a2.005 2.005 0 0 1 3.097.585c4.646-6.692 13.07-9.629 19.177-9.961a25.25 25.25 0 0 1 4.164.134c-3.987-1.542-8.296-2.345-12.164-2.134-6.107.333-14.531 3.27-19.177 9.961a2.005 2.005 0 0 0-3.097-.585c-15.522 13.528.921 35.339.921 35.339 0-.266-.759-8.121.862-14.126-1.176-6.378-.309-13.526 6.217-19.213z" className="color212121 svgShape"/><path fill="#ffe2b7" d="M278.889 199.36s3.652-5.766 5.811-3.874c5.374 4.712-.725 17.45-5.314 14.426m-39.662-10.552s-3.652-5.766-5.811-3.874c-5.374 4.712.725 17.45 5.314 14.426" className="colorffc5b7 svgShape"/><path fill="#fff" d="M435.58 136.288H32.001v-45H435.58z" className="colorffffff svgShape"/><circle cx="117.46" cy="113.447" r="9" fill="#ffa41a" className="colorffc31a svgShape"/><circle cx="85.96" cy="113.447" r="9" fill="#5fe4d4" className="color61ceac svgShape"/><circle cx="54.46" cy="113.447" r="9" fill="#c555f9" className="colorf955af svgShape"/><path fill="#ad59d4" d="M32 135.947h50v249H32z" className="color865acc svgShape"/><ellipse cx="57" cy="161.968" fill="#ccc" className="colorcccccc svgShape" rx="17.469" ry="17.5"/><defs><ellipse id="a" cx="57" cy="161.968" fill="#000" className="color000000 svgShape" rx="17.469" ry="17.5"/></defs><use fill="#fff" overflow="visible" xlink:href="#a"/><clipPath id="b"><use overflow="visible" xlink:href="#a"/></clipPath><g className="color000000 svgShape" clip-path="url(#b)"><path fill="#c555f9" d="M59.345 165.69h-4.69c-5.714 0-10.346 4.677-10.346 10.447v13.583h25.382v-13.583c0-5.77-4.632-10.447-10.346-10.447z" className="colorf955af svgShape"/><ellipse cx="57" cy="159.596" fill="#ffe1b3" className="colorffc0b3 svgShape" rx="9.014" ry="9.101"/><path fill="#333" d="M60.768 151.328a8.903 8.903 0 0 0-3.768-.834c-4.978 0-9.014 4.075-9.014 9.101 0 .001 9.748-.509 12.782-8.267z" className="color333333 svgShape"/></g><path fill="#fff" d="M69.163 236.984H44.837a2.037 2.037 0 0 1 0-4.074h24.325a2.037 2.037 0 0 1 .001 4.074zm0-30H44.837a2.037 2.037 0 0 1 0-4.074h24.325a2.037 2.037 0 0 1 .001 4.074zm0 60H44.837a2.037 2.037 0 0 1 0-4.074h24.325a2.037 2.037 0 0 1 .001 4.074zm0 30H44.837a2.037 2.037 0 0 1 0-4.074h24.325a2.037 2.037 0 0 1 .001 4.074zm0 30H44.837a2.037 2.037 0 0 1 0-4.074h24.325a2.037 2.037 0 0 1 .001 4.074zm0 30H44.837a2.037 2.037 0 0 1 0-4.074h24.325a2.037 2.037 0 0 1 .001 4.074z" className="colorffffff svgShape"/><path fill="#c555f9" d="M107 311.067h84.941v48.88H107z" className="colorf955af svgShape"/><path fill="#b119f7" d="M119 311.067h-12v48.88h84.941v-12H139c-11.046 0-20-8.954-20-20v-16.88z" className="colorf7199e svgShape"/><circle cx="131.471" cy="335.507" r="15" fill="#fff" className="colorffffff svgShape"/><path fill="#fff" d="M172.941 345.044h-14.215a2.037 2.037 0 0 1 0-4.074h14.215a2.037 2.037 0 0 1 0 4.074zm10-15h-24.215a2.037 2.037 0 0 1 0-4.074h24.215a2.037 2.037 0 0 1 0 4.074z" className="colorffffff svgShape"/><path fill="#ffa41a" d="M217 311.067h84.941v48.88H217z" className="colorffc31a svgShape"/><path fill="#f90" d="M229 311.067h-12v48.88h84.941v-12H249c-11.046 0-20-8.954-20-20v-16.88z" className="colorffaf00 svgShape"/><circle cx="241.471" cy="335.507" r="15" fill="#fff" className="colorffffff svgShape"/><path fill="#fff" d="M282.941 345.044h-14.215a2.037 2.037 0 0 1 0-4.074h14.215a2.037 2.037 0 0 1 0 4.074zm10-15h-24.215a2.037 2.037 0 0 1 0-4.074h24.215a2.037 2.037 0 0 1 0 4.074z" className="colorffffff svgShape"/><path fill="#ad59d4" d="M327 311.067h84.941v48.88H327z" className="color865acc svgShape"/><path fill="#9442ba" d="M339 311.067h-12v48.88h84.941v-12H359c-11.046 0-20-8.954-20-20v-16.88z" className="color6a42ba svgShape"/><circle cx="351.471" cy="335.507" r="15" fill="#fff" className="colorffffff svgShape"/><path fill="#fff" d="M392.941 345.044h-14.215a2.037 2.037 0 0 1 0-4.074h14.215a2.037 2.037 0 0 1 0 4.074zm10-15h-24.215a2.037 2.037 0 0 1 0-4.074h24.215a2.037 2.037 0 0 1 0 4.074z" className="colorffffff svgShape"/><path fill="#ebd2f7" d="M302.016 32.087H468v158.148H302.016z" className="colore2d2f7 svgShape"/><ellipse cx="335.428" cy="97.917" fill="#fff" className="colorffffff svgShape" rx="22.486" ry="22.526"/><defs><ellipse id="c" cx="335.428" cy="97.917" fill="#000" className="color000000 svgShape" rx="22.486" ry="22.526"/></defs><clipPath id="d"><use overflow="visible" xlink:href="#c"/></clipPath><g className="color000000 svgShape" clip-path="url(#d)"><path fill="#c555f9" d="M338.446 102.708h-6.037c-7.355 0-13.317 6.02-13.317 13.447v17.484h32.672v-17.484c0-7.427-5.963-13.447-13.318-13.447z" className="colorf955af svgShape"/><path fill="#b119f7" d="M338.409 102.708h-6c-7.355 0-13.317 6.021-13.317 13.447v17.484h6v-17.484c0-7.427 5.962-13.447 13.317-13.447z" className="colorf7199e svgShape"/><ellipse cx="335.428" cy="94.864" fill="#ffe1b3" className="colorffc0b3 svgShape" rx="11.603" ry="11.715"/><path fill="#333" d="M340.278 84.222a11.462 11.462 0 0 0-4.851-1.073c-6.408 0-11.603 5.245-11.603 11.715.001 0 12.549-.657 16.454-10.642z" className="color333333 svgShape"/></g><path fill="#fff" d="M435.934 109.772h-61.493a2.037 2.037 0 0 1 0-4.074h61.493a2.037 2.037 0 0 1 0 4.074zm19.603-19.638h-81.096a2.037 2.037 0 0 1 0-4.074h81.096a2.037 2.037 0 0 1 0 4.074z" className="colorffffff svgShape"/><ellipse cx="335.428" cy="156.061" fill="#fff" className="colorffffff svgShape" rx="22.486" ry="22.526"/><defs><ellipse id="e" cx="335.428" cy="156.061" fill="#000" className="color000000 svgShape" rx="22.486" ry="22.526"/></defs><clipPath id="f"><use overflow="visible" xlink:href="#e"/></clipPath><g className="color000000 svgShape" clip-path="url(#f)"><path fill="#ad59d4" d="M338.446 160.852h-6.037c-7.355 0-13.317 6.02-13.317 13.447v17.484h32.672v-17.484c0-7.426-5.963-13.447-13.318-13.447z" className="color865acc svgShape"/><path fill="#9442ba" d="M338.409 160.852h-6c-7.355 0-13.317 6.021-13.317 13.447v17.484h6v-17.484c0-7.426 5.962-13.447 13.317-13.447z" className="color6a42ba svgShape"/><ellipse cx="335.428" cy="153.008" fill="#ffe1b3" className="colorffc0b3 svgShape" rx="11.603" ry="11.715"/><path fill="#333" d="M340.278 142.366a11.462 11.462 0 0 0-4.851-1.073c-6.408 0-11.603 5.245-11.603 11.715.001 0 12.549-.656 16.454-10.642z" className="color333333 svgShape"/></g><path fill="#fff" d="M435.934 167.917h-61.493a2.037 2.037 0 0 1 0-4.074h61.493a2.037 2.037 0 0 1 0 4.074zm19.603-19.638h-81.096a2.037 2.037 0 0 1 0-4.074h81.096a2.037 2.037 0 0 1 0 4.074z" className="colorffffff svgShape"/><path fill="#8526fe" d="M302.016 31.997H468v31.651H302.016z" className="color131c46 svgShape"/><g fill="#fff" className="colorffffff svgShape"><circle cx="317.698" cy="47.897" r="5.762" fill="#000" className="color000000 svgShape"/><circle cx="339.21" cy="47.897" r="5.762" fill="#000" className="color000000 svgShape"/><circle cx="360.722" cy="47.897" r="5.762" fill="#000" className="color000000 svgShape"/></g><path fill="#fff" d="M0 339.477h175.035v107.335H0z" className="colorffffff svgShape"/><path fill="#ebd2f7" d="M12 339.477H0v107.335h175.035v-12H62c-27.614 0-50-22.386-50-50v-45.335z" className="colore2d2f7 svgShape"/><path fill="#5fe4d4" d="M175.035 385.198c-3.424 2.706-7.656 6.647-12.871 12.242-22.599 24.243-35.881-1.201-40.368-12.618-1.949-4.959-4.841-9.529-8.76-13.14-15.514-14.293-28.282-1.471-34.53 7.472-1.962 2.809-3.59 5.815-4.969 8.951-3.287 7.475-16.471 32.148-41.009 14.241-16.559-12.083-24.925-9.818-28.989-5.983C1.18 398.589-.01 401.789 0 405.09v41.722l175.035-.058v-61.556z" className="color61ceac svgShape"/><path fill="#52c1b4" d="M12.739 393.34c-4.331-.278-7.259 1.191-9.201 3.024C1.18 398.589-.01 401.789 0 405.09v41.722l175.035-.058v-11.942H62c-24.705 0-45.211-17.923-49.261-41.472z" className="color52c1a1 svgShape"/></svg>